<?xml version="1.0" encoding="utf-8"?><svg viewBox="0 0 60 60" xmlns="http://www.w3.org/2000/svg" xmlns:xlink="http://www.w3.org/1999/xlink"><style>:root>svg{display:none}:root>svg:target{display:block}</style><svg fill="none" viewBox="0 0 60 60" id="gmail" xmlns="http://www.w3.org/2000/svg"><circle cx="30" cy="30" r="30" fill="#E3E6FF"/><path d="M44 40.5h-3.5V25.187L30 31.75l-10.5-6.563V40.5H16v-21h2.1L30 26.938 41.9 19.5H44v21zM44 16H16a3.488 3.488 0 00-3.5 3.5v21A3.5 3.5 0 0016 44h28a3.5 3.5 0 003.5-3.5v-21A3.5 3.5 0 0044 16z" fill="#EB4646"/></svg><svg fill="none" viewBox="0 0 8 10" id="next" xmlns="http://www.w3.org/2000/svg"><path d="M1.5 1.25L6 5 1.5 8.75" stroke="#fff" stroke-width="2" stroke-linecap="round"/></svg><svg fill="none" viewBox="0 0 60 60" id="outlook" xmlns="http://www.w3.org/2000/svg"><circle cx="30" cy="30" r="30" fill="#E3E6FF"/><path d="M23.407 30.058c0 .485-.039.951-.115 1.399-.14.434-.333.83-.575 1.188-.256.345-.569.62-.94.824-.383.205-.836.307-1.36.307-.537 0-.99-.109-1.361-.326a2.826 2.826 0 01-.92-.863 3.528 3.528 0 01-.518-1.207 5.519 5.519 0 01-.172-1.38c0-.46.057-.92.172-1.38.103-.447.275-.85.518-1.207.243-.358.562-.646.958-.863.383-.217.843-.326 1.38-.326.55 0 1.01.109 1.38.326.384.23.69.524.92.882.23.37.403.78.518 1.226.076.46.115.927.115 1.4zM49.167 30v14.97c0 .498-.173.938-.518 1.322-.358.32-.786.479-1.284.479H22.218c-.498 0-.926-.16-1.284-.48a1.919 1.919 0 01-.517-1.322v-5.386h-7.993c-.421 0-.798-.153-1.13-.46-.307-.332-.46-.709-.46-1.13V22.006c0-.421.153-.798.46-1.13.332-.307.708-.46 1.13-.46h10.389v-5.501c0-.473.16-.875.479-1.208.332-.32.734-.479 1.207-.479h20.585c.473 0 .875.16 1.208.48.32.332.479.734.479 1.207V28.16l1.993 1.15h.02c.102.077.191.179.268.307a.676.676 0 01.115.383zm-9.584-13.168v4.792h4.792v-4.791h-4.792zm0 7.188v4.792h4.792V24.02h-4.792zm0 7.188v2.913l4.869-2.914h-4.869zm-8.375-14.375v4.791h5.98v-4.791h-5.98zm0 7.187v4.792h5.98V24.02h-5.98zm0 7.188v3.239l3.852 2.376 2.127-1.265v-4.35h-5.98zm-6-14.375v3.584h3.393a.33.33 0 01.21.076v-3.68l-3.603.02zm-4.791 19.53c.932 0 1.776-.166 2.53-.498a5.671 5.671 0 001.897-1.36 5.658 5.658 0 001.15-2.052 8.324 8.324 0 00.422-2.568c0-.882-.134-1.706-.403-2.473a5.543 5.543 0 00-1.15-1.974 5.268 5.268 0 00-1.82-1.322c-.729-.32-1.553-.48-2.473-.48-.984 0-1.86.16-2.626.48a5.41 5.41 0 00-1.916 1.341 5.932 5.932 0 00-1.189 2.07 8.258 8.258 0 00-.402 2.626c0 .895.134 1.725.402 2.492a5.818 5.818 0 001.188 1.955c.512.55 1.131.984 1.86 1.303.74.307 1.584.46 2.53.46zm2.395 8.012h19.78L30 36.517v1.475c0 .422-.153.8-.46 1.131-.332.307-.71.46-1.13.46h-5.598v4.792zm23.959-.21V32.606l-9.43 5.654 9.43 5.903z" fill="#752CD1"/></svg><svg fill="none" viewBox="0 0 8 10" id="prev" xmlns="http://www.w3.org/2000/svg"><path d="M6.5 1.25L2 5l4.5 3.75" stroke="#fff" stroke-width="2" stroke-linecap="round"/></svg><svg fill="none" viewBox="0 0 60 60" id="smart" xmlns="http://www.w3.org/2000/svg"><circle cx="30" cy="30" r="30" fill="#E3E6FF"/><path d="M36.125 45.222l-3.642-3.642-1.983 1.983 5.625 5.624 11.25-11.25-1.983-1.982-9.267 9.267z" fill="#33343A"/><path d="M22.063 46.375V21.062h16.875V33.72h2.812V15.437a2.815 2.815 0 00-2.813-2.812H22.064a2.815 2.815 0 00-2.813 2.813v30.937a2.815 2.815 0 002.813 2.813h5.625v-2.813h-5.625zm0-30.938h16.875v2.813H22.061v-2.813z" fill="#33343A"/></svg><svg fill="none" viewBox="0 0 26 26" id="tg" xmlns="http://www.w3.org/2000/svg"><path d="M12.993.5a12.5 12.5 0 100 25 12.5 12.5 0 000-25zm3.975 18.94a.881.881 0 01-1.253.44l-3.394-2.637-2.177 2.01a.376.376 0 01-.356.048l.417-3.736.013.011.008-.074s6.107-5.56 6.355-5.796c.253-.236.17-.287.17-.287.014-.288-.452 0-.452 0l-8.091 5.205-3.37-1.148s-.517-.185-.565-.594c-.052-.405.582-.624.582-.624l13.396-5.323s1.102-.49 1.102.323L16.968 19.44z" fill="#5185B5"/></svg><svg fill="none" viewBox="0 0 53 53" id="tg-big" xmlns="http://www.w3.org/2000/svg"><path d="M26.484.25a26.25 26.25 0 100 52.5 26.25 26.25 0 000-52.5zm8.348 39.774a1.851 1.851 0 01-2.63.924l-7.127-5.539-4.573 4.221a.789.789 0 01-.748.103l.877-7.846.026.023.018-.155S33.498 20.08 34.021 19.583c.53-.496.354-.604.354-.604.032-.603-.948 0-.948 0L16.436 29.91 9.36 27.5s-1.086-.388-1.189-1.247c-.107-.85 1.224-1.312 1.224-1.312l28.132-11.177s2.312-1.03 2.312.677l-5.008 25.583z" fill="#5185B5"/></svg><svg fill="none" viewBox="0 0 28 28" id="vk" xmlns="http://www.w3.org/2000/svg"><path d="M14 .56C6.577.56.56 6.577.56 14c0 7.423 6.017 13.44 13.44 13.44 7.423 0 13.44-6.017 13.44-13.44C27.44 6.577 21.423.56 14 .56zm5.169 15.163s1.189 1.174 1.481 1.718c.009.012.013.023.016.028.119.2.146.356.088.472-.098.193-.434.289-.55.297h-2.1c-.145 0-.45-.038-.82-.293-.284-.198-.564-.525-.837-.843-.407-.473-.76-.881-1.115-.881a.426.426 0 00-.134.02c-.268.087-.613.47-.613 1.493 0 .32-.252.502-.43.502h-.961c-.328 0-2.035-.114-3.547-1.709-1.85-1.953-3.516-5.87-3.53-5.907-.105-.253.112-.389.348-.389h2.121c.283 0 .375.172.44.325.075.178.353.885.808 1.68.738 1.296 1.19 1.823 1.552 1.823a.42.42 0 00.195-.05c.473-.264.385-1.95.364-2.3 0-.066-.002-.755-.244-1.086-.173-.24-.469-.33-.648-.364a.768.768 0 01.279-.236c.324-.163.91-.187 1.49-.187h.324c.63.009.792.05 1.02.107.463.11.473.409.432 1.43-.013.29-.025.617-.025 1.003 0 .084-.005.174-.005.269-.013.52-.03 1.109.337 1.35.047.03.103.047.16.047.127 0 .51 0 1.549-1.782.32-.574.599-1.17.833-1.784.02-.036.082-.148.155-.192a.371.371 0 01.174-.04h2.493c.272 0 .458.04.493.146.062.166-.011.674-1.15 2.216l-.507.67c-1.032 1.353-1.032 1.421.064 2.447z" fill="#4C66BF"/></svg><svg fill="none" viewBox="0 0 57 57" id="vk-big" xmlns="http://www.w3.org/2000/svg"><path d="M28.5.176C12.912.176.276 12.812.276 28.4c0 15.588 12.636 28.224 28.224 28.224 15.588 0 28.224-12.636 28.224-28.224C56.724 12.812 44.088.176 28.5.176zm10.855 31.843s2.495 2.464 3.11 3.608c.018.023.026.047.032.058.25.42.309.747.186.991-.206.406-.912.606-1.153.623h-4.41c-.306 0-.947-.079-1.723-.614-.597-.418-1.185-1.103-1.758-1.77-.855-.994-1.596-1.852-2.343-1.852a.901.901 0 00-.28.044c-.564.182-1.287.988-1.287 3.134 0 .67-.53 1.055-.903 1.055h-2.02c-.687 0-4.271-.24-7.447-3.59-3.886-4.1-7.385-12.327-7.414-12.403-.22-.532.235-.818.732-.818h4.454c.594 0 .788.362.923.683.159.373.741 1.858 1.697 3.528 1.549 2.722 2.499 3.827 3.26 3.827a.882.882 0 00.409-.105c.993-.553.808-4.096.764-4.83 0-.139-.003-1.585-.512-2.28-.364-.502-.984-.693-1.36-.764.152-.21.352-.38.584-.497.682-.34 1.911-.39 3.131-.39h.68c1.323.017 1.664.102 2.143.223.97.232.99.858.905 3.002a46.698 46.698 0 00-.052 2.108c0 .176-.01.364-.01.564-.029 1.09-.064 2.329.706 2.837.1.063.217.097.335.097.268 0 1.073 0 3.255-3.742A28.574 28.574 0 0035.739 21c.043-.076.173-.312.326-.403a.783.783 0 01.364-.085h5.236c.57 0 .962.085 1.035.306.13.35-.023 1.417-2.414 4.654L39.22 26.88c-2.166 2.84-2.166 2.984.136 5.14z" fill="#4C66BF"/></svg><svg fill="none" viewBox="0 0 27 26" id="wts" xmlns="http://www.w3.org/2000/svg"><path d="M.589 25.5l1.746-6.21A12.136 12.136 0 01.583 13C.583 6.096 6.366.5 13.5.5 20.634.5 26.417 6.096 26.417 13S20.634 25.5 13.5 25.5a13.186 13.186 0 01-6.497-1.694L.589 25.5zm8.25-18.365c-.167.01-.33.053-.48.125-.14.077-.268.173-.38.285-.155.141-.242.264-.337.383a3.34 3.34 0 00-.73 2.097c.003.612.168 1.209.427 1.766.528 1.128 1.397 2.322 2.546 3.428.276.266.546.534.837.782a12.338 12.338 0 004.96 2.558l.735.108c.239.013.478-.005.718-.016a2.635 2.635 0 001.076-.288c.169-.085.334-.177.495-.276 0 0 .055-.035.16-.112.175-.125.282-.214.427-.36.107-.107.2-.234.271-.377.101-.204.202-.593.243-.917.031-.247.022-.382.018-.466-.005-.134-.12-.273-.245-.331l-.752-.326s-1.124-.474-1.81-.777a.663.663 0 00-.228-.051.642.642 0 00-.488.159v-.003c-.007 0-.093.072-1.027 1.167a.465.465 0 01-.475.162 1.88 1.88 0 01-.247-.082c-.16-.066-.216-.09-.326-.137l-.006-.002a7.8 7.8 0 01-2.028-1.25c-.163-.138-.314-.288-.469-.433a7.92 7.92 0 01-1.318-1.585l-.076-.118a1.138 1.138 0 01-.131-.257c-.05-.184.078-.331.078-.331s.314-.332.46-.512c.122-.15.235-.306.34-.467.152-.237.2-.481.12-.67-.362-.855-.736-1.706-1.121-2.551-.076-.167-.302-.287-.508-.311a5.916 5.916 0 00-.209-.02 4.518 4.518 0 00-.52.005v.001z" fill="#4FB52C"/></svg><svg fill="none" viewBox="0 0 55 53" id="wts-big" xmlns="http://www.w3.org/2000/svg"><path d="M.436 52.75l3.667-13.041A25.486 25.486 0 01.425 26.5C.425 12.002 12.569.25 27.55.25S54.675 12.002 54.675 26.5 42.531 52.75 27.55 52.75a27.694 27.694 0 01-13.644-3.557L.436 52.75zM17.76 14.184c-.35.02-.693.11-1.007.262a3.498 3.498 0 00-.797.598c-.326.297-.51.554-.708.804a7.015 7.015 0 00-1.533 4.405c.006 1.286.353 2.538.895 3.709 1.11 2.367 2.935 4.874 5.347 7.197.58.56 1.147 1.121 1.757 1.644a25.914 25.914 0 0010.416 5.37l1.544.229c.502.026 1.003-.01 1.508-.034a5.536 5.536 0 002.26-.607c.355-.177.701-.37 1.038-.577 0 0 .117-.074.34-.236.366-.263.59-.45.895-.757.225-.225.42-.49.57-.792.21-.428.422-1.245.51-1.924.064-.52.045-.804.037-.98-.01-.28-.252-.572-.515-.695l-1.579-.685s-2.36-.995-3.8-1.63a1.39 1.39 0 00-.48-.108 1.35 1.35 0 00-1.026.333v-.005c-.013 0-.195.15-2.156 2.45a.948.948 0 01-.445.317.98.98 0 01-.553.023 3.926 3.926 0 01-.518-.173c-.337-.136-.453-.189-.684-.286l-.014-.005a16.384 16.384 0 01-4.258-2.625c-.342-.289-.66-.604-.985-.908a16.636 16.636 0 01-2.767-3.329l-.16-.25a2.392 2.392 0 01-.276-.537c-.103-.386.165-.696.165-.696s.66-.698.966-1.076c.255-.314.493-.641.713-.98.32-.498.42-1.01.253-1.406a214.527 214.527 0 00-2.355-5.358c-.16-.352-.635-.604-1.066-.654a12.31 12.31 0 00-.44-.042 9.491 9.491 0 00-1.092.01v.004z" fill="#4FB52C"/></svg></svg>