<?xml version="1.0" standalone="no"?>
<!DOCTYPE svg PUBLIC "-//W3C//DTD SVG 20010904//EN"
 "http://www.w3.org/TR/2001/REC-SVG-20010904/DTD/svg10.dtd">
<svg version="1.0" xmlns="http://www.w3.org/2000/svg"
 width="264.000000pt" height="264.000000pt" viewBox="0 0 264.000000 264.000000"
 preserveAspectRatio="xMidYMid meet">
<metadata>
Created by potrace 1.14, written by Peter Selinger 2001-2017
</metadata>
<g transform="translate(0.000000,264.000000) scale(0.100000,-0.100000)"
fill="#000000" stroke="none">
<path d="M1170 2480 c-248 -45 -495 -174 -659 -342 -34 -35 -35 -35 -125 -37
-144 -2 -258 -43 -273 -99 -9 -37 25 -144 71 -223 l42 -72 -22 -63 c-40 -116
-58 -230 -58 -379 -1 -193 16 -299 70 -443 152 -406 479 -691 904 -792 141
-34 396 -34 540 -1 391 90 714 356 874 721 34 77 72 193 81 250 3 14 9 50 14
80 9 56 7 325 -3 370 -3 14 -8 39 -12 55 -15 78 -60 208 -98 285 -179 361
-491 604 -881 686 -127 27 -328 28 -465 4z"/>
</g>
</svg>
